# xmcd CD database file
#
# Track frame offsets:
#	150
#	20656
#	40252
#	56979
#	74959
#	101062
#	120939
#	147373
#	165642
#	182809
#
# Disc length: 2695 seconds
#
# Revision: 0
# Processed by: cddbd v1.5.2PL0 Copyright (c) Steve Scherf et al.
# Submitted via: CDex 1.70beta2
#
DISCID=970a850a
DTITLE=Rhythm Rising - Flow
DYEAR=1900
DGENRE=Salsa
TTITLE0=Fall down
TTITLE1=Don't give it up
TTITLE2=Love's an invisible thing
TTITLE3=New Horizon
TTITLE4=Another Killing
TTITLE5=Dance
TTITLE6=What ist this Love
TTITLE7=Whenn 2000 comes
TTITLE8=yours song
TTITLE9=You're not alone
EXTD=
EXTT0=
EXTT1=
EXTT2=
EXTT3=
EXTT4=
EXTT5=
EXTT6=
EXTT7=
EXTT8=
EXTT9=
PLAYORDER=
